<?xml version="1.0"?>
<svg width="80" height="80" xmlns="http://www.w3.org/2000/svg" xmlns:svg="http://www.w3.org/2000/svg">
 <g class="layer">
  <title>Layer 1</title>
  <path d="m66.75,39.94c-0.44,-2.39 -1.59,-4.63 -3.26,-6.54c-0.15,-0.14 -0.29,-0.28 -0.43,-0.43c-0.1,-0.09 -0.2,-0.24 -0.34,-0.33c-0.05,-0.05 -0.1,-0.1 -0.14,-0.15c-0.72,-0.71 -1.59,-1.38 -2.5,-2c-2.63,-1.81 -5.89,-3.05 -9.44,-3.77c-4.41,-0.86 -9.34,-0.91 -14.28,0.05c-4.94,0.95 -9.49,2.72 -13.28,5.15c-0.14,0.1 -0.28,0.19 -0.43,0.29c-0.19,0.14 -0.38,0.24 -0.53,0.38c-0.23,0.14 -0.47,0.33 -0.67,0.48c-2.34,1.72 -4.31,3.72 -5.8,5.87c-0.62,0.95 -1.19,1.91 -1.63,2.91c-1.19,2.77 -1.58,5.63 -1.05,8.4c0.24,1.24 0.72,2.43 1.29,3.58c0.05,0.09 0.1,0.14 0.15,0.24c0.05,0.09 0.09,0.19 0.14,0.24c0.72,1.24 1.68,2.38 2.78,3.43c2.93,2.77 7.1,4.78 11.89,5.73c2.16,0.43 4.46,0.67 6.85,0.67c2.4,0 4.84,-0.24 7.33,-0.72c5.13,-0.95 9.83,-2.91 13.71,-5.49c2.88,-1.91 5.27,-4.2 6.95,-6.73c0.1,-0.14 0.19,-0.28 0.29,-0.47c0.1,-0.15 0.19,-0.34 0.29,-0.48c0.09,-0.14 0.19,-0.33 0.28,-0.48c0.29,-0.48 0.53,-1 0.72,-1.48c1.3,-2.81 1.68,-5.63 1.11,-8.35zm-34.51,-1.34l0.05,-0.09c0.67,-2.72 3.73,-4.92 7.62,-5.82c-1.15,1.48 -1.73,3.29 -1.68,5.2c0,0.43 0.05,0.76 0.05,1.14c0.09,1.53 0.19,2.87 -0.58,5.68l0,0.1c-0.29,1.33 0.43,2.43 0.91,3.15l-2.97,7.63l-9.73,0l6.33,-16.99z" fill="white" id="svg_1"/>
  <path d="m45.71,31.3c2.63,0.38 6.32,2.01 5.36,6.83c-0.76,4.05 -3.88,4.72 -5.22,6.06c-2.25,1.24 -1.25,3.86 -4.36,3.82c1.1,0.14 2.01,0.09 2.35,0.09c7.09,0 12.89,-3.72 12.89,-8.45c0,-4.24 -4.75,-7.78 -11.02,-8.35z" fill="#E20813" id="svg_2"/>
  <path clip-rule="evenodd" d="m37.7,44.76l0,-0.1c0.77,-2.76 0.67,-4.1 0.58,-5.67c-0.05,-0.39 -0.05,-0.77 -0.05,-1.15c-0.05,-1.91 0.52,-3.72 1.68,-5.2c-3.93,0.9 -6.95,3.1 -7.63,5.82l-0.04,0.1l-6.28,16.94l9.73,0l2.97,-7.64c-0.53,-0.62 -1.2,-1.76 -0.96,-3.1z" fill="#124193" fill-rule="evenodd" id="svg_3"/>
  <path d="m73.55,38.6c-0.67,-3.67 -2.97,-6.92 -6.61,-9.4c-7.1,-4.87 -18.98,-6.44 -30.92,-4.2c-11.83,2.25 -22.19,8.07 -27.03,15.18c-2.54,3.67 -3.45,7.59 -2.78,11.31c0.72,3.68 3.07,6.92 6.76,9.4c4.99,3.34 12.17,5.11 20.08,5.11c3.45,0 7.1,-0.33 10.69,-1.05c11.84,-2.24 22.19,-8.07 27.03,-15.18c2.54,-3.62 3.5,-7.49 2.78,-11.17zm-9.44,12.56c-1.73,2.53 -4.12,4.82 -6.95,6.73c-3.88,2.57 -8.58,4.53 -13.71,5.49c-2.49,0.47 -4.98,0.71 -7.33,0.71c-2.4,0 -4.7,-0.24 -6.85,-0.67c-4.84,-0.95 -8.97,-2.96 -11.89,-5.72c-1.1,-1.05 -2.06,-2.2 -2.78,-3.44c-0.05,-0.1 -0.1,-0.19 -0.14,-0.24c-0.05,-0.09 -0.1,-0.14 -0.15,-0.24c-0.57,-1.1 -1.05,-2.29 -1.29,-3.58c-0.53,-2.77 -0.19,-5.63 1.05,-8.4c0.43,-1 0.96,-1.95 1.63,-2.91c1.49,-2.15 3.45,-4.15 5.8,-5.87c0.24,-0.14 0.43,-0.33 0.67,-0.48c0.19,-0.14 0.34,-0.24 0.53,-0.38c0.14,-0.09 0.29,-0.19 0.43,-0.29c3.79,-2.43 8.34,-4.2 13.28,-5.15c4.93,-0.95 9.87,-0.95 14.28,-0.05c3.55,0.72 6.76,1.96 9.44,3.77c0.91,0.62 1.73,1.29 2.49,2.01c0.05,0.05 0.1,0.09 0.15,0.14c0.09,0.1 0.19,0.24 0.33,0.33c0.15,0.15 0.29,0.29 0.44,0.43c1.67,1.91 2.82,4.16 3.25,6.54c0.53,2.72 0.2,5.54 -1,8.26c-0.24,0.52 -0.48,1 -0.72,1.48c-0.1,0.14 -0.19,0.33 -0.29,0.48c-0.09,0.14 -0.19,0.33 -0.29,0.47c-0.19,0.29 -0.24,0.43 -0.38,0.58z" fill="#E20813" id="svg_4"/>
 </g>
</svg>